<?xml version="1.0" standalone="no"?>
<!DOCTYPE svg PUBLIC "-//W3C//DTD SVG 20010904//EN"
 "http://www.w3.org/TR/2001/REC-SVG-20010904/DTD/svg10.dtd">
<svg version="1.0" xmlns="http://www.w3.org/2000/svg"
 width="700.000000pt" height="700.000000pt" viewBox="0 0 700.000000 700.000000"
 preserveAspectRatio="xMidYMid meet">
<metadata>
Created by potrace 1.11, written by Peter Selinger 2001-2013
</metadata>
<g transform="translate(0.000000,700.000000) scale(0.100000,-0.100000)"
fill="#000000" stroke="none">
<path d="M476 6984 c-178 -43 -333 -167 -411 -329 -70 -144 -65 113 -64 -3150
0 -1765 4 -2968 9 -2995 5 -25 12 -56 14 -68 3 -13 22 -58 43 -100 52 -106
168 -223 273 -274 149 -73 -117 -67 3153 -68 1921 0 2964 3 2995 10 165 35
290 111 385 235 52 68 81 127 108 224 18 63 19 160 19 3031 0 2663 -2 2971
-16 3025 -49 185 -167 331 -331 411 -138 67 94 62 -3158 62 -2536 0 -2969 -2
-3019 -14z m2409 -1658 c355 -78 645 -333 763 -671 211 -606 -195 -1265 -833
-1352 -22 -3 -290 -6 -595 -8 -305 -1 -557 -3 -560 -4 -3 0 -5 -324 -5 -718 1
-502 -2 -732 -10 -764 -42 -174 -275 -208 -370 -54 l-30 48 0 1681 c-1 1159 2
1692 10 1718 19 66 79 120 154 140 8 2 325 3 705 3 618 -2 699 -4 771 -19z
m2706 16 c40 -3 112 -57 138 -103 43 -75 30 -173 -31 -238 -56 -60 -76 -64
-353 -66 -277 -2 -294 -5 -353 -66 -54 -55 -58 -89 -57 -439 l0 -315 335 0
c294 -1 339 -3 367 -18 75 -40 116 -105 116 -187 0 -61 -20 -108 -61 -148 -58
-54 -71 -55 -427 -56 l-330 -1 0 -950 c-1 -886 -2 -952 -18 -983 -69 -128
-231 -155 -330 -55 -20 19 -42 52 -49 72 -9 27 -12 259 -12 974 -1 515 -3 938
-6 938 -3 1 -59 2 -125 3 -130 3 -171 14 -221 64 -76 76 -75 208 2 286 49 49
87 59 224 60 l125 2 1 349 c1 291 3 361 17 412 29 109 104 237 181 306 84 75
216 140 311 152 28 4 51 8 52 9 2 2 468 0 504 -2z"/>
<path d="M1659 4930 c-1 -3 -2 -278 -3 -612 -1 -401 2 -609 9 -611 22 -7 1083
0 1125 7 240 42 455 260 497 504 34 202 -44 420 -201 562 -80 72 -160 111
-301 147 -27 7 -1125 10 -1126 3z"/>
</g>
</svg>
