<?xml version="1.0" encoding="iso-8859-1"?>
<!-- Generator: Adobe Illustrator 19.0.0, SVG Export Plug-In . SVG Version: 6.00 Build 0)  -->
<svg version="1.1" id="Layer_1" xmlns="http://www.w3.org/2000/svg" xmlns:xlink="http://www.w3.org/1999/xlink" x="0px" y="0px"
	viewBox="0 0 512 512" style="enable-background:new 0 0 512 512;" xml:space="preserve">
<g>
	<g>
		<path fill="#bbbbcc" d="M437.019,74.981C388.667,26.628,324.379,0,256,0S123.333,26.628,74.981,74.981C26.628,123.333,0,187.621,0,256
			s26.628,132.667,74.981,181.019C123.333,485.372,187.621,512,256,512s132.667-26.628,181.019-74.981S512,324.379,512,256
			S485.372,123.333,437.019,74.981z M256,495.832C123.756,495.832,16.168,388.244,16.168,256S123.756,16.168,256,16.168
			S495.832,123.756,495.832,256S388.244,495.832,256,495.832z"/>
	</g>
</g>
<g>
	<g>
		<path fill="#bbbbcc" d="M256,75.453c-99.554,0-180.547,80.993-180.547,180.547S156.446,436.547,256,436.547S436.547,355.554,436.547,256
			S355.554,75.453,256,75.453z M419.294,237.162c-0.536-0.004-1.075-0.025-1.609-0.025c-36.757,0-70.978,11.052-99.533,29.991
			c-10.875-13.89-23.053-26.9-36.462-38.888c-7.266-6.496-14.792-12.594-22.551-18.294c16.804-27.413,26.503-59.63,26.503-94.072
			c0-7.29-0.447-14.585-1.316-21.803C355.441,106.476,410.992,164.738,419.294,237.162z M256,91.621
			c3.951,0,7.868,0.149,11.749,0.425c1.139,7.858,1.725,15.846,1.725,23.828c0,31.024-8.643,60.066-23.641,84.851
			c-36.14-23.641-76.797-38.977-119.91-45.101C156.012,116.721,203.127,91.621,256,91.621z M91.621,256
			c0-31.255,8.771-60.498,23.977-85.404c44.392,5.022,85.668,20.198,121.357,43.32c-29.992,40.234-77.934,66.337-131.86,66.337
			c-3.911,0-7.837-0.153-11.741-0.427C92.219,272.044,91.621,264.091,91.621,256z M256,420.379c-0.887,0-1.771-0.019-2.655-0.033
			c-0.014-0.888-0.04-1.777-0.04-2.661c0-20.349,3.728-39.839,10.521-57.839c1.107-2.932,0.399-6.236-1.817-8.452
			c-0.057-0.057-0.114-0.114-0.171-0.171c-4.112-4.112-11.076-2.579-13.131,2.861c-7.476,19.79-11.57,41.225-11.57,63.601
			c0,0.535,0.019,1.073,0.024,1.608c-68.336-7.833-124.065-57.732-140.556-123.083c2.831,0.133,5.665,0.211,8.491,0.211
			c59.436,0,112.25-28.875,145.169-73.326c20.677,15.165,39.198,33.128,55.021,53.405c-14.105,11.253-26.488,24.575-36.697,39.497
			c-2.16,3.157-1.733,7.417,0.972,10.121c0.045,0.045,0.091,0.091,0.136,0.136c3.555,3.555,9.432,2.949,12.273-1.199
			c9.172-13.394,20.27-25.369,32.896-35.52c19.612,28.378,34.195,60.705,42.44,95.832C329.367,407.291,294.183,420.379,256,420.379z
			M370.961,373.369c-8.912-33.615-23.499-65.029-43.185-93.226c25.854-16.957,56.747-26.837,89.908-26.837
			c0.884,0,1.773,0.027,2.661,0.041c0.014,0.884,0.033,1.767,0.033,2.654C420.379,301.93,401.436,343.513,370.961,373.369z"/>
	</g>
</g>
</svg>
