<?xml version="1.0" encoding="iso-8859-1"?>
<!-- Generator: Adobe Illustrator 21.0.0, SVG Export Plug-In . SVG Version: 6.00 Build 0)  -->
<svg xmlns="http://www.w3.org/2000/svg" xmlns:xlink="http://www.w3.org/1999/xlink" version="1.1" id="Capa_1" x="0px" y="0px" viewBox="0 0 512.015 512.015" style="enable-background:new 0 0 512.015 512.015;" xml:space="preserve" width="512" height="512">
<g>
	<g>
		<path fill="#bbbbcc" d="M508.515,107.031l-0.16-0.2c-0.01-0.01-0.02-0.02-0.03-0.04c-0.01-0.01-0.03-0.03-0.04-0.04l-0.16-0.19    c-3.98-4.61-9.31-6.02-14.1-5.17c-2.18,0.01-4.31,0.06-6.4,0.15c4.05-6.3,7.61-13.38,10.28-21.33c1.83-5.46,0.37-11.48-3.74-15.5    c-4.12-4.02-10.17-5.33-15.58-3.38c-5.12,1.85-39.02,14.03-50.77,18.41c-0.44,0.17-0.75,0.25-0.93,0.29    c-0.34-0.17-1.12-0.62-2.46-1.75c-31.48-26.26-73.44-34.34-112.24-21.61c-37.2,12.21-64.92,41.85-74.14,79.3    c-2.57,10.47-2.96,21.08-3.28,31.36c-69.71-7.83-129.63-39.26-178.31-93.57c-3.25-3.62-8.05-5.44-12.89-4.89    c-4.84,0.56-9.1,3.43-11.44,7.7c-11.38,20.78-16.25,40.86-14.88,61.36c1.18,17.74,6.14,33.91,14.81,48.43    c-3.72-0.21-7.44,0.97-10.38,3.38c-3.73,3.05-5.76,7.7-5.46,12.51c1.63,26.94,10.17,49.94,25.38,68.36    c4.28,5.19,9.05,10.01,14.35,14.49c-1.1,0.9-2.07,1.97-2.88,3.18c-2.79,4.13-3.34,9.39-1.47,14.01    c13.5,33.33,35.59,55.68,67.05,67.63c-31.58,15.35-65.47,21.73-102.72,19.45c-6.86-0.42-13.13,3.88-15.22,10.43    c-2.08,6.55,0.56,13.68,6.41,17.3c48.74,30.17,106.23,44.16,161.7,44.16c56.85,0,111.2-15.4,158.63-45.17    c26.62-16.71,50.21-37.49,70.11-61.75c10.07-12.27,19.07-25.3,26.97-38.98c7.9-13.68,14.68-28.03,20.3-42.94    c12.2-32.4,18.66-66.83,19.19-102.35c0.25-0.78,1.26-2.67,2.85-4.31c7.59-7.88,16.07-15.77,24.28-23.4    c4.58-4.26,9.29-8.64,13.88-13.05c4.497-2.863,6.99-7.784,6.99-12.7C512.015,113.401,510.955,110.061,508.515,107.031z     M445.265,144.941c-2.6,2.69-11.08,12.41-11.25,24.3c-0.43,32.19-6.24,63.34-17.27,92.6    c-42.02,111.53-152.04,179.15-273.79,168.26c-24.17-2.16-47.04-6.92-68.44-14.22c32.76-6.09,63.25-19.27,92.18-39.72    c5.07-3.59,7.41-9.93,5.88-15.94c-1.53-6.02-6.61-10.48-12.77-11.21c-32.32-3.82-54.52-15.59-69.49-37.35h15.64    c7.21,0,13.41-5.14,14.74-12.23c1.33-7.09-2.58-14.13-9.3-16.75c-34.07-13.26-54.14-32.91-61.84-60.98    c9.08,2.39,17.96,4.73,26.95,7.11c7.1,1.87,14.51-1.67,17.52-8.37c3-6.7,0.71-14.59-5.41-18.64    c-26.08-17.26-39.63-38.8-41.44-65.86c-0.57-8.53,0.37-16.87,2.92-25.43c54.77,53.7,121.28,83.31,198.02,88.09    c8.2,0.51,15.29-5.67,15.89-13.87c0.4-5.39,0.56-10.55,0.71-15.54c0.29-9.43,0.57-18.35,2.46-26.05    c6.83-27.74,26.65-48.87,54.37-57.97c28.9-9.48,60.17-3.45,83.66,16.15c3.87,3.22,15.63,13.04,33.09,6.53    c1.72-0.64,3.43-1.27,5.15-1.91c-1.42,1.17-2.89,2.34-4.42,3.51c-7.08,3.506-10.275,12-7.11,19.36l0.2,0.48    c3.28,7.61,12.1,11.13,19.71,7.85c0.09-0.04,0.19-0.08,0.28-0.12c0.45-0.11,0.91-0.22,1.37-0.33    C450.695,139.411,447.945,142.161,445.265,144.941z"/>
	</g>
</g>
</svg>
